<svg xmlns="http://www.w3.org/2000/svg" viewBox="0 0 64 64"><g id="feedback"><path d="M55,44.76A2.5,2.5,0,0,0,52.5,42H45V36a4,4,0,0,0-4.13-4A2,2,0,0,0,39,34v.38A11.55,11.55,0,0,1,32,45H29V59h.88a5.12,5.12,0,0,1,3.62,1.5A5.12,5.12,0,0,0,37.12,62H49.36A2.6,2.6,0,0,0,52,59.76,2.5,2.5,0,0,0,49.5,57h.86A2.6,2.6,0,0,0,53,54.76,2.5,2.5,0,0,0,50.5,52h.86A2.6,2.6,0,0,0,54,49.76,2.5,2.5,0,0,0,51.5,47h.86A2.6,2.6,0,0,0,55,44.76Z" fill="#000000" style="fill: rgb(255, 255, 255);"></path><path d="M21,61h2V55a1,1,0,0,1,2,0v6h2V43H21Z" fill="#000000" style="fill: rgb(255, 255, 255);"></path><path d="M18,42H9V62h9a1,1,0,0,0,1-1V43A1,1,0,0,0,18,42ZM14,59a2,2,0,1,1,2-2A2,2,0,0,1,14,59Z" fill="#000000" style="fill: rgb(255, 255, 255);"></path><path d="M29,28v6l6-6h5a7,7,0,0,0,7-7V9a7,7,0,0,0-7-7H24a7,7,0,0,0-7,7V21a7,7,0,0,0,7,7Zm.73-16.27,2.34-4.22,2.34,4.22,4.73.92-3.28,3.53L36.44,21l-4.37-2L27.7,21l.58-4.79L25,12.65Z" fill="#000000" style="fill: rgb(255, 255, 255);"></path></g></svg>